{"title":"Enemy.2013.BRRip.720p.x264.AAC-PRiSTiNE [P2PDL]","uid":10377587,"size":589721425,"categoryP":"video","categoryS":"hd___movies","magnet":"?xt=urn:btih:4518c9a7804a26f4514e1c50a1329ce16474417e&amp;dn=Enemy.2013.BRRip.720p.x264.AAC-PRiSTiNE+%5BP2PDL%5D&amp;tr=udp%3A%2F%2Ftracker.openbittorrent.com%3A80&amp;tr=udp%3A%2F%2Fopen.demonii.com%3A1337&amp;tr=udp%3A%2F%2Ftracker.coppersurfer.tk%3A6969&amp;tr=udp%3A%2F%2Fexodus.desync.com%3A6969","seeders":1,"leechers":0,"uploader":"ValidusVyto","files":-1,"time":1403024891,"description":"Enemy.2013.BRRip.720p.x264.AAC-PRiSTiNE\n\n\nGenre: Mystery | Thriller &lt;a href=&quot;\nhttp://www.imdb.com/title/tt2316411/&quot; rel=&quot;nofollow&quot; target=&quot;_NEW&quot;&gt;\nhttp://www.imdb.com/title/tt2316411/&lt;/a&gt;\n\n\nFormat                         : MPEG-4\nFile size                      : 552 MiB\nDuration                       : 1h 30mn\nOverall bit rate               : 848 Kbps\n\nVideo\nFormat                         : AVC\nBit rate                       : 778 Kbps\nWidth                          : 1 280 pixels\nHeight                         : 536 pixels\nDisplay aspect ratio           : 2.40:1\nFrame rate mode                : Constant\nFrame rate                     : 23.976 fps\nBit depth                      : 8 bits\nStream size                    : 506 MiB (92%)\n\nAudio\nFormat                         : AAC\nBit rate mode                  : Variable\nBit rate                       : 66.2 Kbps\nChannel(s)                     : 2 channels\nChannel positions              : Front: L R \nSampling rate                  : 48.0 KHz\nStream size                    : 43.6 MiB (8%)\nLanguage                       : English\n\nSubtitle                       : Yes (English)\n &lt;a href=&quot;\nhttp://someimage.com/8ir0HvR&quot; rel=&quot;nofollow&quot; target=&quot;_NEW&quot;&gt;\nhttp://someimage.com/8ir0HvR&lt;/a&gt; &lt;a href=&quot;\nhttp://someimage.com/2IGmi6b&quot; rel=&quot;nofollow&quot; target=&quot;_NEW&quot;&gt;\nhttp://someimage.com/2IGmi6b&lt;/a&gt; &lt;a href=&quot;\nhttp://someimage.com/1LDANYz&quot; rel=&quot;nofollow&quot; target=&quot;_NEW&quot;&gt;\nhttp://someimage.com/1LDANYz&lt;/a&gt; &lt;a href=&quot;\nhttp://someimage.com/mSP3piA&quot; rel=&quot;nofollow&quot; target=&quot;_NEW&quot;&gt;\nhttp://someimage.com/mSP3piA&lt;/a&gt; &lt;a href=&quot;\nhttp://someimage.com/BrONvRH&quot; rel=&quot;nofollow&quot; target=&quot;_NEW&quot;&gt;\nhttp://someimage.com/BrONvRH&lt;/a&gt; &lt;a href=&quot;\nhttp://someimage.com/IjU9ik7&quot; rel=&quot;nofollow&quot; target=&quot;_NEW&quot;&gt;\nhttp://someimage.com/IjU9ik7&lt;/a&gt; &lt;a href=&quot;\nhttp://someimage.com/KRPLrH6&quot; rel=&quot;nofollow&quot; target=&quot;_NEW&quot;&gt;\nhttp://someimage.com/KRPLrH6&lt;/a&gt; &lt;a href=&quot;\nhttp://someimage.com/IhgZAeH&quot; rel=&quot;nofollow&quot; target=&quot;_NEW&quot;&gt;\nhttp://someimage.com/IhgZAeH&lt;/a&gt;\n\n\n----------------------------------------------------------------------------------------------------\n\n\nRecommend to you to use latest version of VLC player. Install K-Lite Codec Pack or shark007 codecs\nin case of any kind of problem in playback (For non-VLC Media Player users). Alternatively, install\nCore AVC codecs, the fastest decoder that there is coupled with Community Center Codec Pack and play\non Windows Media Player Classic. Check sample to be sure.\n\nEncoder Notes:Looking For Early Access To Anything You Can Provide DVDScr, R5, DVDR, BluRay, Direct\nAudio, Music Releases and Seedboxes. We require dedicated servers, so as to do more \nand fast releases of movies.\n\nEncode by PRiSTiNE @ P2PDL Torrent Sharing Community! Find us :)\t\t","torrent":{"xt":"urn:btih:4518c9a7804a26f4514e1c50a1329ce16474417e","amp;dn":"Enemy.2013.BRRip.720p.x264.AAC-PRiSTiNE+%5BP2PDL%5D","amp;tr":["udp%3A%2F%2Ftracker.openbittorrent.com%3A80","udp%3A%2F%2Fopen.demonii.com%3A1337","udp%3A%2F%2Ftracker.coppersurfer.tk%3A6969","udp%3A%2F%2Fexodus.desync.com%3A6969"],"infoHash":"4518c9a7804a26f4514e1c50a1329ce16474417e","infoHashBuffer":{"type":"Buffer","data":[69,24,201,167,128,74,38,244,81,78,28,80,161,50,156,225,100,116,65,126]},"announce":[],"urlList":[]}}